<svg width="128" height="128" viewBox="0 0 128 128" fill="none" xmlns="http://www.w3.org/2000/svg">
<rect width="128" height="128" rx="64" fill="#7328F2"/>
<path d="M97.7774 41.4271C91.975 40.244 87.4398 35.8329 86.2236 30.1891C86.0742 29.4963 85.446 29 84.718 29C83.99 29 83.3617 29.4963 83.2124 30.1892C81.9962 35.8329 77.4609 40.2439 71.6586 41.4269C70.9462 41.5721 70.4359 42.1832 70.4359 42.8912C70.4359 43.5992 70.9461 44.2104 71.6586 44.3556C77.4609 45.5387 81.9959 49.9498 83.2122 55.5934C83.3615 56.2863 83.9897 56.7827 84.7177 56.7827C85.4456 56.7827 86.0739 56.2864 86.2232 55.5934C87.4396 49.9498 91.9749 45.5387 97.7773 44.3558C98.4896 44.2106 99 43.5996 99 42.8915C98.9999 42.1835 98.4896 41.5723 97.7774 41.4271Z" fill="white"/>
<path d="M44.1214 56.9393C41.3876 56.382 39.2508 54.3037 38.6776 51.6445C38.5283 50.9516 37.9001 50.4552 37.1721 50.4552C36.4442 50.4552 35.8159 50.9514 35.6666 51.6444C35.0934 54.3035 32.9565 56.3818 30.2227 56.9392C29.5103 57.0844 29 57.6956 29 58.4036C29 59.1116 29.5103 59.7227 30.2227 59.8679C32.9564 60.4254 35.0933 62.5038 35.6664 65.1629C35.8157 65.8558 36.4439 66.3522 37.1719 66.3522C37.8998 66.3522 38.5281 65.856 38.6774 65.1629C39.2506 62.5038 41.3875 60.4254 44.1214 59.868C44.8337 59.7228 45.3441 59.1117 45.3441 58.4037C45.3441 57.6957 44.8338 57.0846 44.1214 56.9393Z" fill="white"/>
<path d="M79.9905 87.7254C76.2952 86.972 73.4071 84.1627 72.6326 80.5687C72.4833 79.8758 71.855 79.3794 71.127 79.3794C70.3991 79.3794 69.7708 79.8756 69.6215 80.5686C68.8468 84.1627 65.9587 86.9719 62.2635 87.7252C61.5511 87.8705 61.0408 88.4816 61.0408 89.1896C61.0408 89.8976 61.551 90.5087 62.2635 90.654C65.9586 91.4074 68.8467 94.2166 69.6213 97.8107C69.7706 98.5036 70.3988 99 71.1268 99C71.8547 99 72.4831 98.5038 72.6324 97.8107C73.4071 94.2166 76.2952 91.4074 79.9904 90.6541C80.7028 90.5088 81.2131 89.8978 81.2131 89.1898C81.2131 88.4818 80.7028 87.8706 79.9905 87.7254Z" fill="white"/>
<path fill-rule="evenodd" clip-rule="evenodd" d="M66.21 49.2714L33.8006 81.5095C33.2423 82.0662 32.9287 82.8203 32.9287 83.6066C32.9287 84.3929 33.2423 85.1471 33.8006 85.7038L42.2346 94.0923C42.7942 94.6476 43.5525 94.9594 44.343 94.9594C45.1336 94.9594 45.8919 94.6476 46.4515 94.0923L78.8609 61.8542C79.4192 61.2975 79.7328 60.5434 79.7328 59.7571C79.7328 58.9708 79.4192 58.2166 78.8609 57.66L70.4337 49.2714C69.8739 48.7151 69.1149 48.4026 68.3235 48.4026C67.5322 48.4026 66.7698 48.7151 66.21 49.2714ZM63.7537 60.1063L68.3202 55.5645L72.5371 59.7588L67.9707 64.3006L63.7537 60.1063ZM63.7537 68.4982L44.3413 87.7992L40.1244 83.6049L59.5334 64.3039L63.7503 68.4982H63.7537Z" fill="white"/>
</svg>
