<svg width="24" height="24" viewBox="0 0 24 24" fill="none" xmlns="http://www.w3.org/2000/svg"><rect width="24" height="24" rx="12" fill="#7328F2"/><path d="M18.333 7.768c-1.088-.222-1.938-1.05-2.166-2.108a.29.29 0 0 0-.282-.223.29.29 0 0 0-.283.223c-.228 1.059-1.078 1.886-2.166 2.108a.28.28 0 0 0-.23.274c0 .133.096.247.23.275 1.088.222 1.938 1.049 2.166 2.107.028.13.146.223.283.223a.29.29 0 0 0 .282-.223c.228-1.058 1.078-1.885 2.166-2.107a.28.28 0 0 0 .23-.275.28.28 0 0 0-.23-.274m-10.06 2.908a1.3 1.3 0 0 1-1.021-.993.29.29 0 0 0-.282-.223.29.29 0 0 0-.283.223 1.3 1.3 0 0 1-1.02.993.28.28 0 0 0-.23.275c0 .132.096.247.23.274.512.105.913.495 1.02.993.028.13.146.223.283.223a.29.29 0 0 0 .282-.223 1.3 1.3 0 0 1 1.02-.993.28.28 0 0 0 .23-.274.28.28 0 0 0-.23-.275m6.726 5.773a1.76 1.76 0 0 1-1.38-1.342.29.29 0 0 0-.282-.223.29.29 0 0 0-.282.223 1.76 1.76 0 0 1-1.38 1.342.28.28 0 0 0-.229.274c0 .133.096.247.23.275a1.76 1.76 0 0 1 1.379 1.342c.028.13.146.223.282.223a.29.29 0 0 0 .283-.223 1.76 1.76 0 0 1 1.38-1.342.28.28 0 0 0 .228-.275.28.28 0 0 0-.229-.274" fill="#fff"/><path fill-rule="evenodd" clip-rule="evenodd" d="m12.414 9.238-6.076 6.045a.555.555 0 0 0 0 .786l1.58 1.573a.56.56 0 0 0 .792 0l6.076-6.044a.556.556 0 0 0 0-.787l-1.58-1.573a.56.56 0 0 0-.792 0m-.46 2.032.856-.852.79.787-.856.851zm0 1.573-3.64 3.62-.79-.787 3.638-3.62z" fill="#fff"/></svg>