<svg width="20" height="20" viewBox="0 0 20 20" fill="none" xmlns="http://www.w3.org/2000/svg">
<g id="Search">
<path id="Vector" fill-rule="evenodd" clip-rule="evenodd" d="M9.29163 1.66663C7.26939 1.66663 5.32997 2.46996 3.90002 3.8999C2.47008 5.32984 1.66675 7.26926 1.66675 9.29151C1.66675 11.3138 2.47008 13.2532 3.90002 14.6831C5.32997 16.1131 7.26939 16.9164 9.29163 16.9164C10.2929 16.9164 11.2845 16.7192 12.2095 16.336C12.7903 16.0954 13.3378 15.7845 13.84 15.4112L16.4366 18.0079C16.8705 18.4418 17.5741 18.4418 18.008 18.0079C18.4419 17.5739 18.4419 16.8704 18.008 16.4365L15.4114 13.8399C15.7846 13.3376 16.0955 12.7902 16.3361 12.2094C16.7193 11.2843 16.9165 10.2928 16.9165 9.29151C16.9165 8.29019 16.7193 7.29868 16.3361 6.37359C15.9529 5.4485 15.3913 4.60794 14.6832 3.8999C13.9752 3.19187 13.1346 2.63022 12.2095 2.24704C11.2845 1.86385 10.2929 1.66663 9.29163 1.66663ZM5.47137 5.47125C6.48457 4.45806 7.85876 3.88885 9.29163 3.88885C10.0011 3.88885 10.7037 4.02859 11.3591 4.3001C12.0146 4.57161 12.6102 4.96957 13.1119 5.47125C13.6136 5.97293 14.0115 6.56852 14.283 7.224C14.5545 7.87948 14.6943 8.58202 14.6943 9.29151C14.6943 10.001 14.5545 10.7035 14.283 11.359C14.0115 12.0145 13.6136 12.6101 13.1119 13.1118C12.6102 13.6134 12.0146 14.0114 11.3591 14.2829C10.7037 14.5544 10.0011 14.6942 9.29163 14.6942C7.85876 14.6942 6.48457 14.125 5.47137 13.1118C4.45818 12.0986 3.88897 10.7244 3.88897 9.29151C3.88897 7.85863 4.45818 6.48445 5.47137 5.47125Z" fill="#838383"/>
</g>
</svg>
